<svg width="203" height="120" viewBox="0 0 203 120" fill="none" xmlns="http://www.w3.org/2000/svg">
<path d="M49.4629 9.74786C54.8528 0.426315 66.7902 -2.76748 76.1258 2.61431C85.4614 7.99611 88.66 19.9155 83.2701 29.2371L36.4255 110.252C31.0356 119.574 19.0982 122.767 9.76256 117.386C0.426956 112.004 -2.77166 100.084 2.61826 90.7629L49.4629 9.74786Z" fill="white"/>
<path d="M108.019 9.74786C113.409 0.426315 125.346 -2.76748 134.682 2.61431C144.017 7.99611 147.216 19.9155 141.826 29.2371L94.9813 110.252C89.5914 119.574 77.654 122.767 68.3184 117.386C58.9828 112.004 55.7842 100.084 61.1741 90.7629L108.019 9.74786Z" fill="white"/>
<path d="M143.326 70.0457C137.936 60.7242 141.135 48.8048 150.471 43.423C159.806 38.0412 171.744 41.235 177.134 50.5565L200.382 90.7629C205.772 100.084 202.573 112.004 193.237 117.386C183.902 122.767 171.964 119.574 166.575 110.252L143.326 70.0457Z" fill="white"/>
</svg>
